<?xml version="1.0" encoding="UTF-8"?>
<svg width="284px" height="48px" viewBox="0 0 284 48" version="1.1" xmlns="http://www.w3.org/2000/svg" xmlns:xlink="http://www.w3.org/1999/xlink">
    <!-- Generator: Sketch 45.1 (43504) - http://www.bohemiancoding.com/sketch -->
    <title>Group</title>
    <desc>Created with Sketch.</desc>
    <defs></defs>
    <g id="Page-1" stroke="none" stroke-width="1" fill="none" fill-rule="evenodd">
        <g id="iPad-Pro-Copy-2" transform="translate(-368.000000, -36.000000)">
            <g id="Group" transform="translate(368.000000, 38.000000)">
                <g id="Logo" transform="translate(0.000000, 10.000000)" fill="#FFFFFF">
                    <path d="M38.1989546,4.09326458 L40.868774,4.09326458 L48.3648054,21.4896405 L44.8221605,21.4896405 L43.1791946,17.4987072 L35.6831632,17.4987072 L34.0915401,21.4896405 L30.6002378,21.4896405 L38.1989546,4.09326458 L38.1989546,4.09326458 Z M42.152341,14.8380849 L39.4825216,7.777203 L36.7613595,14.8380849 L42.152341,14.8380849 L42.152341,14.8380849 Z M62.0219585,21.4896405 L59.198111,21.4896405 L59.198111,19.6988371 L59.1467684,19.6988371 C58.736027,20.3639926 58.1712574,20.9268165 57.4524599,21.2849772 C56.7336624,21.6431379 55.9121795,21.8478011 55.0906966,21.8478011 C54.1665283,21.8478011 53.3963881,21.6943037 52.6775906,21.336143 C51.958793,20.9779823 51.3426809,20.5686559 50.8292541,20.0058319 C50.3158272,19.443008 49.9564285,18.7778524 49.6483725,18.0103653 C49.3403163,17.2428781 49.237631,16.4242252 49.237631,15.5544063 C49.237631,14.6845875 49.391659,13.8659346 49.6483725,13.0984474 C49.9050859,12.3309602 50.3158272,11.6658047 50.8292541,11.1541465 C51.3426809,10.5913226 51.958793,10.1819961 52.6775906,9.82383546 C53.3963881,9.51684059 54.1665283,9.36334316 54.9880112,9.36334316 C55.5527807,9.36334316 56.0148648,9.41450897 56.4256063,9.5680064 C56.8363477,9.67033803 57.2470892,9.82383546 57.5551453,10.0284987 C57.8632014,10.2331619 58.1712574,10.3866594 58.3766281,10.6424884 C58.5819989,10.8471517 58.7873696,11.0518149 58.9413977,11.2564782 L58.9927403,11.2564782 L58.9927403,3.68393809 L61.9706159,3.68393809 L61.9706159,21.4896405 L62.0219585,21.4896405 L62.0219585,21.4896405 Z M52.3181919,15.5544063 C52.3181919,16.0148986 52.3695345,16.4753909 52.5235626,16.9358832 C52.6775906,17.3963755 52.8829614,17.8057021 53.1396747,18.1638627 C53.3963881,18.5220234 53.7557869,18.8290182 54.217871,19.0336815 C54.6286125,19.2383448 55.1420393,19.3918422 55.7068088,19.3918422 C56.2715783,19.3918422 56.7336624,19.2895105 57.1444039,19.0848473 C57.5551453,18.8801841 57.9145441,18.5731892 58.2226001,18.2150285 C58.5306563,17.8568678 58.736027,17.4475413 58.890055,16.987049 C59.044083,16.5265567 59.1467684,16.0660644 59.1467684,15.6055721 C59.1467684,15.1450798 59.044083,14.6845875 58.890055,14.2240952 C58.736027,13.7636029 58.4793135,13.3542764 58.2226001,12.9961158 C57.9145441,12.6379551 57.5551453,12.3309602 57.1444039,12.126297 C56.7336624,11.8704679 56.2202356,11.7681363 55.7068088,11.7681363 C55.1420393,11.7681363 54.6286125,11.8704679 54.217871,12.0751312 C53.8071296,12.2797944 53.4477308,12.5867893 53.1396747,12.94495 C52.8829614,13.3031106 52.6262479,13.7124371 52.5235626,14.1729294 C52.3695345,14.6334217 52.3181919,15.093914 52.3181919,15.5544063 L52.3181919,15.5544063 L52.3181919,15.5544063 Z M77.3220774,21.4896405 L74.4982299,21.4896405 L74.4982299,19.6988371 L74.4468873,19.6988371 C74.0361459,20.3639926 73.4713763,20.9268165 72.7525788,21.2849772 C72.0337813,21.6431379 71.2122984,21.8478011 70.3908155,21.8478011 C69.4666472,21.8478011 68.696507,21.6943037 67.9777095,21.336143 C67.2589119,20.9779823 66.6427998,20.5686559 66.129373,20.0058319 C65.6159461,19.443008 65.2565474,18.7778524 64.9484913,18.0103653 C64.6404352,17.2428781 64.5377499,16.4242252 64.5377499,15.5544063 C64.5377499,14.6845875 64.6917779,13.8659346 64.9484913,13.0984474 C65.2052048,12.3309602 65.6159461,11.6658047 66.129373,11.1541465 C66.6427998,10.5913226 67.2589119,10.1819961 67.9777095,9.82383546 C68.696507,9.51684059 69.4666472,9.36334316 70.2881301,9.36334316 C70.8528996,9.36334316 71.3149837,9.41450897 71.7257252,9.5680064 C72.1364666,9.67033803 72.5472081,9.82383546 72.8552641,10.0284987 C73.1633203,10.2331619 73.4713763,10.3866594 73.676747,10.6424884 C73.8821178,10.8983175 74.0874885,11.0518149 74.2415166,11.2564782 L74.2928592,11.2564782 L74.2928592,3.68393809 L77.2707348,3.68393809 L77.2707348,21.4896405 L77.3220774,21.4896405 L77.3220774,21.4896405 Z M67.5669681,15.5544063 C67.5669681,16.0148986 67.6183108,16.4753909 67.7723388,16.9358832 C67.9263668,17.3963755 68.1317375,17.8057021 68.388451,18.1638627 C68.6451643,18.5220234 69.0045631,18.8290182 69.4666472,19.0336815 C69.8773887,19.2383448 70.3908155,19.3918422 70.955585,19.3918422 C71.5203545,19.3918422 71.9824386,19.2895105 72.3931801,19.0848473 C72.8039215,18.8801841 73.1633203,18.5731892 73.4713763,18.2150285 C73.7794324,17.8568678 73.9848032,17.4475413 74.1388312,16.987049 C74.2928592,16.5265567 74.3955446,16.0660644 74.3955446,15.6055721 C74.3955446,15.1450798 74.2928592,14.6845875 74.1388312,14.2240952 C73.9848032,13.7636029 73.7280897,13.3542764 73.4713763,12.9961158 C73.1633203,12.6379551 72.8039215,12.3309602 72.3931801,12.126297 C71.9824386,11.9216337 71.4690118,11.7681363 70.955585,11.7681363 C70.3908155,11.7681363 69.8773887,11.8704679 69.4666472,12.0751312 C69.0559058,12.2797944 68.696507,12.5867893 68.388451,12.94495 C68.1317375,13.3031106 67.8750241,13.7124371 67.7723388,14.1729294 C67.6696534,14.6334217 67.5669681,15.093914 67.5669681,15.5544063 L67.5669681,15.5544063 L67.5669681,15.5544063 Z M84.9207942,6.80505259 L79.5811554,6.80505259 L79.5811554,4.09326458 L93.3923365,4.09326458 L93.3923365,6.80505259 L88.0526977,6.80505259 L88.0526977,21.4896405 L84.9721368,21.4896405 L84.9721368,6.80505259 L84.9207942,6.80505259 L84.9207942,6.80505259 Z M103.712215,9.77266964 C104.276985,10.0284987 104.739069,10.3866594 105.047125,10.8471517 C105.406524,11.307644 105.663237,11.8193021 105.817265,12.382126 C105.971293,12.94495 106.073979,13.5589397 106.073979,14.1729294 L106.073979,21.4896405 L103.096103,21.4896405 L103.096103,14.9915824 C103.096103,14.6334217 103.096103,14.2752611 103.04476,13.9171003 C102.993418,13.5589397 102.890732,13.200779 102.736704,12.8937841 C102.582676,12.5867893 102.377306,12.3309602 102.06925,12.126297 C101.761194,11.9216337 101.401795,11.8193021 100.939711,11.8193021 C100.477626,11.8193021 100.066885,11.9216337 99.7074863,12.0751312 C99.3480875,12.2797944 99.0913741,12.4844576 98.8346606,12.7914525 C98.6292899,13.0984474 98.4239192,13.456608 98.3212339,13.8147688 C98.2185485,14.1729294 98.1672059,14.5822559 98.1672059,14.9915824 L98.1672059,21.4896405 L95.1893303,21.4896405 L95.1893303,3.68393809 L98.1672059,3.68393809 L98.1672059,11.3588098 L98.2185485,11.3588098 C98.3212339,11.1029807 98.5266046,10.8471517 98.7319753,10.6424884 C98.9373461,10.3866594 99.1940595,10.1819961 99.5021155,10.0284987 C99.8101717,9.87500127 100.118228,9.67033803 100.528969,9.5680064 C100.888368,9.46567477 101.299109,9.41450897 101.761194,9.41450897 C102.479991,9.36334316 103.147446,9.46567477 103.712215,9.77266964 L103.712215,9.77266964 L103.712215,9.77266964 Z M109.257225,21.4896405 L112.2351,21.4896405 L112.2351,9.72150383 L109.257225,9.72150383 L109.257225,21.4896405 L109.257225,21.4896405 Z M108.846483,5.67940474 C108.846483,5.21891244 109.000512,4.80958594 109.35991,4.45142526 C109.719309,4.09326458 110.181393,3.93976715 110.69482,3.93976715 C111.208247,3.93976715 111.670331,4.09326458 112.081072,4.45142526 C112.440471,4.80958594 112.645842,5.21891244 112.645842,5.73057055 C112.645842,6.24222866 112.440471,6.65155515 112.081072,7.00971583 C111.721674,7.36787651 111.259589,7.52137395 110.69482,7.52137395 C110.13005,7.52137395 109.719309,7.36787651 109.35991,7.00971583 C109.000512,6.60038934 108.846483,6.19106285 108.846483,5.67940474 L108.846483,5.67940474 L108.846483,5.67940474 Z M122.606322,12.8426183 C122.349609,12.4844576 121.99021,12.1774628 121.528126,11.9216337 C121.066042,11.6658047 120.552615,11.563473 120.039188,11.563473 C119.577104,11.563473 119.11502,11.6658047 118.755621,11.8704679 C118.344879,12.0751312 118.139509,12.382126 118.139509,12.8426183 C118.139509,13.3031106 118.344879,13.6101055 118.806964,13.8147688 C119.217705,14.019432 119.88516,14.1729294 120.706643,14.3775926 C121.168727,14.4799243 121.579468,14.5822559 122.041552,14.7869192 C122.503637,14.9915824 122.914378,15.1450798 123.273777,15.4520747 C123.633176,15.7590695 123.941232,16.0660644 124.197945,16.4753909 C124.454658,16.8847175 124.557344,17.3452098 124.557344,17.9591995 C124.557344,18.6755208 124.403316,19.2895105 124.146602,19.8011687 C123.889889,20.3128268 123.53049,20.7221533 123.068406,21.0291482 C122.606322,21.336143 122.092895,21.5408063 121.476783,21.6943037 C120.860671,21.8478011 120.244559,21.8989669 119.628446,21.8989669 C118.704278,21.8989669 117.831453,21.7454695 116.958627,21.3873088 C116.085801,21.0291482 115.367004,20.5686559 114.802234,19.9546661 L116.753256,18.1126969 C117.061312,18.5220234 117.523397,18.8801841 118.036823,19.187179 C118.55025,19.443008 119.166362,19.5965054 119.782474,19.5965054 C119.987845,19.5965054 120.193216,19.5965054 120.449929,19.5453396 C120.6553,19.4941738 120.860671,19.443008 121.066042,19.2895105 C121.271412,19.1360131 121.42544,19.0336815 121.528126,18.8801841 C121.630811,18.6755208 121.682154,18.4708576 121.682154,18.2150285 C121.682154,17.7033704 121.476783,17.3963755 121.014699,17.1405465 C120.552615,16.8847175 119.88516,16.73122 118.960992,16.5265567 C118.498907,16.4242252 118.088166,16.3218935 117.677425,16.1683961 C117.266683,16.0148986 116.907284,15.8102354 116.547886,15.5544063 C116.23983,15.2985772 115.931773,14.9915824 115.777745,14.6334217 C115.623717,14.2752611 115.469689,13.8147688 115.469689,13.2519448 C115.469689,12.5867893 115.623717,12.0239653 115.880431,11.563473 C116.137144,11.1029807 116.496543,10.6936542 116.958627,10.3866594 C117.420711,10.0796645 117.882795,9.87500127 118.447565,9.72150383 C119.012334,9.5680064 119.577104,9.51684059 120.193216,9.51684059 C121.066042,9.51684059 121.887524,9.67033803 122.709007,9.97733289 C123.53049,10.2843278 124.146602,10.7448201 124.660029,11.307644 L122.606322,12.8426183 L122.606322,12.8426183 Z" id="Fill-1"></path>
                    <path d="M18.4833651,13.8147691 L13.8625238,13.8147691 L13.8625238,18.4196921 L10.7819629,18.4196921 L10.7819629,13.8147691 L6.1611217,13.8147691 L6.1611217,10.7448204 L10.7819629,10.7448204 L10.7819629,6.13989737 L13.8625238,6.13989737 L13.8625238,10.7448204 L18.4833651,10.7448204 L18.4833651,13.8147691 L18.4833651,13.8147691 Z M21.563926,0 L3.08056085,0 C1.38625238,0 0,1.38147691 0,3.06994868 L0,21.4896408 C0,23.1781126 1.38625238,24.5595895 3.08056085,24.5595895 L21.563926,24.5595895 C23.2582344,24.5595895 24.6444869,23.1781126 24.6444869,21.4896408 L24.6444869,3.06994868 C24.6444869,1.38147691 23.2582344,0 21.563926,0 L21.563926,0 L21.563926,0 Z" id="Fill-9"></path>
                </g>
                <path d="M179.56,14.268 C180.888007,14.9800036 181.927996,15.9759936 182.68,17.256 C183.432004,18.5360064 183.808,19.9839919 183.808,21.6 C183.808,23.2160081 183.428004,24.6599936 182.668,25.932 C181.907996,27.2040064 180.856007,28.1999964 179.512,28.92 C178.167993,29.6400036 176.640009,30 174.928,30 L168.064,30 L168.064,13.2 L175.048,13.2 C176.728008,13.2 178.231993,13.5559964 179.56,14.268 Z M177.892,26.46 C178.716004,25.9879976 179.359998,25.3320042 179.824,24.492 C180.288002,23.6519958 180.52,22.6960054 180.52,21.624 C180.52,20.5519946 180.280002,19.5880043 179.8,18.732 C179.319998,17.8759957 178.660004,17.2120024 177.82,16.74 C176.979996,16.2679976 176.040005,16.032 175,16.032 L171.28,16.032 L171.28,27.168 L175.12,27.168 C176.144005,27.168 177.067996,26.9320024 177.892,26.46 Z M196.468,18.816 C197.500005,19.9840058 198.016,21.6239894 198.016,23.736 C198.016,24.1520021 198.008,24.463999 197.992,24.672 L188.512,24.672 C188.720001,25.5840046 189.147997,26.2999974 189.796,26.82 C190.444003,27.3400026 191.239995,27.6 192.184,27.6 C192.840003,27.6 193.467997,27.4760012 194.068,27.228 C194.668003,26.9799988 195.191998,26.6240023 195.64,26.16 L197.32,27.912 C196.679997,28.6160035 195.900005,29.1599981 194.98,29.544 C194.059995,29.9280019 193.040006,30.12 191.92,30.12 C190.607993,30.12 189.452005,29.8480027 188.452,29.304 C187.451995,28.7599973 186.680003,27.9960049 186.136,27.012 C185.591997,26.0279951 185.32,24.8960064 185.32,23.616 C185.32,22.3359936 185.595997,21.200005 186.148,20.208 C186.700003,19.215995 187.471995,18.4440028 188.464,17.892 C189.456005,17.3399972 190.583994,17.064 191.848,17.064 C193.89601,17.064 195.435995,17.6479942 196.468,18.816 Z M195.16,22.584 C195.128,21.6399953 194.816003,20.8880028 194.224,20.328 C193.631997,19.7679972 192.848005,19.488 191.872,19.488 C190.959995,19.488 190.196003,19.7639972 189.58,20.316 C188.963997,20.8680028 188.584001,21.6239952 188.44,22.584 L195.16,22.584 Z M206.38,19.776 C205.715997,19.567999 205.104003,19.464 204.544,19.464 C204.015997,19.464 203.596002,19.5559991 203.284,19.74 C202.971998,19.9240009 202.816,20.2079981 202.816,20.592 C202.816,20.992002 203.011998,21.2999989 203.404,21.516 C203.796002,21.7320011 204.415996,21.9599988 205.264,22.2 C206.160004,22.4720014 206.895997,22.7399987 207.472,23.004 C208.048003,23.2680013 208.547998,23.6599974 208.972,24.18 C209.396002,24.7000026 209.608,25.3839958 209.608,26.232 C209.608,27.4800062 209.128005,28.4399966 208.168,29.112 C207.207995,29.7840034 206.000007,30.12 204.544,30.12 C203.551995,30.12 202.584005,29.9640016 201.64,29.652 C200.695995,29.3399984 199.896003,28.8960029 199.24,28.32 L200.32,26.136 C200.896003,26.6320025 201.583996,27.0199986 202.384,27.3 C203.184004,27.5800014 203.943996,27.72 204.664,27.72 C205.240003,27.72 205.699998,27.620001 206.044,27.42 C206.388002,27.219999 206.56,26.920002 206.56,26.52 C206.56,26.0719978 206.360002,25.7360011 205.96,25.512 C205.559998,25.2879989 204.912004,25.0400014 204.016,24.768 C203.151996,24.5119987 202.448003,24.2600012 201.904,24.012 C201.359997,23.7639988 200.888002,23.3880025 200.488,22.884 C200.087998,22.3799975 199.888,21.7200041 199.888,20.904 C199.888,19.6399937 200.347995,18.6760033 201.268,18.012 C202.188005,17.3479967 203.343993,17.016 204.736,17.016 C205.584004,17.016 206.419996,17.1359988 207.244,17.376 C208.068004,17.6160012 208.799997,17.9519978 209.44,18.384 L208.312,20.64 C207.687997,20.2719982 207.044003,19.984001 206.38,19.776 Z M212.272,17.16 L215.392,17.16 L215.392,30 L212.272,30 L212.272,17.16 Z M215.08,12.168 C215.416002,12.5200018 215.584,12.9679973 215.584,13.512 C215.584,14.0400026 215.416002,14.4799982 215.08,14.832 C214.743998,15.1840018 214.320003,15.36 213.808,15.36 C213.295997,15.36 212.872002,15.1840018 212.536,14.832 C212.199998,14.4799982 212.032,14.0400026 212.032,13.512 C212.032,12.9679973 212.199998,12.5200018 212.536,12.168 C212.872002,11.8159982 213.295997,11.64 213.808,11.64 C214.320003,11.64 214.743998,11.8159982 215.08,12.168 Z M230.992,17.16 L230.992,28.776 C230.992,29.9920061 230.716003,31.0519955 230.164,31.956 C229.611997,32.8600045 228.828005,33.5559976 227.812,34.044 C226.795995,34.5320024 225.616007,34.776 224.272,34.776 C222.31999,34.776 220.512008,34.2080057 218.848,33.072 L220.096,30.816 C221.312006,31.7120045 222.647993,32.16 224.104,32.16 C225.256006,32.16 226.171997,31.864003 226.852,31.272 C227.532003,30.679997 227.872,29.8720051 227.872,28.848 L227.872,27.336 C227.439998,27.9920033 226.880003,28.4919983 226.192,28.836 C225.503997,29.1800017 224.704005,29.352 223.792,29.352 C222.671994,29.352 221.680004,29.0920026 220.816,28.572 C219.951996,28.0519974 219.280002,27.3240047 218.8,26.388 C218.319998,25.4519953 218.08,24.3760061 218.08,23.16 C218.08,21.959994 218.319998,20.9000046 218.8,19.98 C219.280002,19.0599954 219.951996,18.3440026 220.816,17.832 C221.680004,17.3199974 222.671994,17.064 223.792,17.064 C224.688004,17.064 225.483997,17.2399982 226.18,17.592 C226.876003,17.9440018 227.439998,18.4399968 227.872,19.08 L227.872,17.16 L230.992,17.16 Z M226.924,25.884 C227.556003,25.2039966 227.872,24.3200054 227.872,23.232 C227.872,22.1439946 227.556003,21.2600034 226.924,20.58 C226.291997,19.8999966 225.472005,19.56 224.464,19.56 C223.455995,19.56 222.636003,19.9039966 222.004,20.592 C221.371997,21.2800034 221.048,22.1599946 221.032,23.232 C221.048,24.3200054 221.371997,25.2039966 222.004,25.884 C222.636003,26.5640034 223.455995,26.904 224.464,26.904 C225.472005,26.904 226.291997,26.5640034 226.924,25.884 Z M245.872,18.372 C246.720004,19.2600044 247.144,20.4639924 247.144,21.984 L247.144,30 L244,30 L244,22.896 C244,21.9999955 243.744003,21.2920026 243.232,20.772 C242.719997,20.2519974 242.024004,19.992 241.144,19.992 C240.103995,20.0080001 239.284003,20.3599966 238.684,21.048 C238.083997,21.7360034 237.784,22.6159946 237.784,23.688 L237.784,30 L234.664,30 L234.664,17.16 L237.784,17.16 L237.784,19.56 C238.664004,17.9119918 240.199989,17.0720002 242.392,17.04 C243.864007,17.04 245.023996,17.4839956 245.872,18.372 Z M260.62,18.816 C261.652005,19.9840058 262.168,21.6239894 262.168,23.736 C262.168,24.1520021 262.16,24.463999 262.144,24.672 L252.664,24.672 C252.872001,25.5840046 253.299997,26.2999974 253.948,26.82 C254.596003,27.3400026 255.391995,27.6 256.336,27.6 C256.992003,27.6 257.619997,27.4760012 258.22,27.228 C258.820003,26.9799988 259.343998,26.6240023 259.792,26.16 L261.472,27.912 C260.831997,28.6160035 260.052005,29.1599981 259.132,29.544 C258.211995,29.9280019 257.192006,30.12 256.072,30.12 C254.759993,30.12 253.604005,29.8480027 252.604,29.304 C251.603995,28.7599973 250.832003,27.9960049 250.288,27.012 C249.743997,26.0279951 249.472,24.8960064 249.472,23.616 C249.472,22.3359936 249.747997,21.200005 250.3,20.208 C250.852003,19.215995 251.623995,18.4440028 252.616,17.892 C253.608005,17.3399972 254.735994,17.064 256,17.064 C258.04801,17.064 259.587995,17.6479942 260.62,18.816 Z M259.312,22.584 C259.28,21.6399953 258.968003,20.8880028 258.376,20.328 C257.783997,19.7679972 257.000005,19.488 256.024,19.488 C255.111995,19.488 254.348003,19.7639972 253.732,20.316 C253.115997,20.8680028 252.736001,21.6239952 252.592,22.584 L259.312,22.584 Z M269.74,17.724 C270.484004,17.2839978 271.351995,17.0560001 272.344,17.04 L272.344,20.064 C271.015993,19.9839996 269.956004,20.2919965 269.164,20.988 C268.371996,21.6840035 267.976,22.6239941 267.976,23.808 L267.976,30 L264.856,30 L264.856,17.16 L267.976,17.16 L267.976,19.632 C268.408002,18.7999958 268.995996,18.1640022 269.74,17.724 Z M280.204,19.776 C279.539997,19.567999 278.928003,19.464 278.368,19.464 C277.839997,19.464 277.420002,19.5559991 277.108,19.74 C276.795998,19.9240009 276.64,20.2079981 276.64,20.592 C276.64,20.992002 276.835998,21.2999989 277.228,21.516 C277.620002,21.7320011 278.239996,21.9599988 279.088,22.2 C279.984004,22.4720014 280.719997,22.7399987 281.296,23.004 C281.872003,23.2680013 282.371998,23.6599974 282.796,24.18 C283.220002,24.7000026 283.432,25.3839958 283.432,26.232 C283.432,27.4800062 282.952005,28.4399966 281.992,29.112 C281.031995,29.7840034 279.824007,30.12 278.368,30.12 C277.375995,30.12 276.408005,29.9640016 275.464,29.652 C274.519995,29.3399984 273.720003,28.8960029 273.064,28.32 L274.144,26.136 C274.720003,26.6320025 275.407996,27.0199986 276.208,27.3 C277.008004,27.5800014 277.767996,27.72 278.488,27.72 C279.064003,27.72 279.523998,27.620001 279.868,27.42 C280.212002,27.219999 280.384,26.920002 280.384,26.52 C280.384,26.0719978 280.184002,25.7360011 279.784,25.512 C279.383998,25.2879989 278.736004,25.0400014 277.84,24.768 C276.975996,24.5119987 276.272003,24.2600012 275.728,24.012 C275.183997,23.7639988 274.712002,23.3880025 274.312,22.884 C273.911998,22.3799975 273.712,21.7200041 273.712,20.904 C273.712,19.6399937 274.171995,18.6760033 275.092,18.012 C276.012005,17.3479967 277.167993,17.016 278.56,17.016 C279.408004,17.016 280.243996,17.1359988 281.068,17.376 C281.892004,17.6160012 282.623997,17.9519978 283.264,18.384 L282.136,20.64 C281.511997,20.2719982 280.868003,19.984001 280.204,19.776 Z" id="Designers" fill="#FFFFFF"></path>
                <path d="M154.28351,1.05122195 C154.28351,18.536743 138.514208,27.32025 138.514208,42.9058964" id="Line" stroke="#FFFFFF" stroke-width="2" stroke-linecap="square" transform="translate(146.398859, 21.978559) rotate(-10.000000) translate(-146.398859, -21.978559) "></path>
            </g>
        </g>
    </g>
</svg>